{"title":"Battalion 2018 1080p WEB-DL DD 5.1 x264 [MW]","magnet":"magnet:?xt=urn:btih:d819cc60cfa62c215f6fc83f17b08a5fbe6062cc&dn=Battalion+2018+1080p+WEB-DL+DD+5.1+x264+%5BMW%5D&tr=udp%3A%2F%2Ftracker.leechers-paradise.org%3A6969&tr=udp%3A%2F%2Fzer0day.ch%3A1337&tr=udp%3A%2F%2Fopen.demonii.com%3A1337&tr=udp%3A%2F%2Ftracker.coppersurfer.tk%3A6969&tr=udp%3A%2F%2Fexodus.desync.com%3A6969","uploader":"MFreaky","categoryP":"video","categoryS":"hd___movies","size":"1933665611","seeders":"13","leechers":"49","description":" <a href=\"https://pichub.site/image/aFxEb\" rel=\"nofollow\" target=\"_NEW\">https://pichub.site/image/aFxEb</a> <a href=\"\nhttps://pichub.site/image/aF0u0\" rel=\"nofollow\" target=\"_NEW\">\nhttps://pichub.site/image/aF0u0</a> <a href=\"\nhttps://pichub.site/image/aFL3V\" rel=\"nofollow\" target=\"_NEW\">\nhttps://pichub.site/image/aFL3V</a> <a href=\"\nhttps://pichub.site/image/aFoaT\" rel=\"nofollow\" target=\"_NEW\">\nhttps://pichub.site/image/aFoaT</a> <a href=\"\nhttps://pichub.site/image/aFp8N\" rel=\"nofollow\" target=\"_NEW\">\nhttps://pichub.site/image/aFp8N</a>\r\n\r\nGeneral\r\nFormat : Matroska\r\nFormat version : Version 4 / Version 2\r\nFile size : 1.80 GiB\r\nDuration : 1 h 33 min\r\nOverall bit rate : 2 754 kb/s\r\n\r\nVideo\r\nID : 1\r\nFormat : AVC\r\nFormat/Info : Advanced Video Codec\r\nFormat profile : High@L4.1\r\nFormat settings : CABAC / 4 Ref Frames\r\nFormat settings, CABAC : Yes\r\nFormat settings, RefFrames : 4 frames\r\nCodec ID : V_MPEG4/ISO/AVC\r\nDuration : 1 h 33 min\r\nBit rate : 2 400 kb/s\r\nWidth : 1 920 pixels\r\nHeight : 816 pixels\r\nDisplay aspect ratio : 2.35:1\r\nFrame rate mode : Constant\r\nFrame rate : 24.000 FPS\r\nColor space : YUV\r\nChroma subsampling : 4:2:0\r\nBit depth : 8 bits\r\nScan type : Progressive\r\nBits/(Pixel*Frame) : 0.064\r\nStream size : 1.55 GiB (86%)\r\nWriting library : x264 core 155 r2901 7d0ff22\r\nDefault : Yes\r\nForced : No\r\n\r\nAudio\r\nID : 3\r\nFormat : AC-3\r\nFormat/Info : Audio Coding 3\r\nCodec ID : A_AC3\r\nDuration : 1 h 33 min\r\nBit rate mode : Constant\r\nBit rate : 384 kb/s\r\nChannel(s) : 6 channels\r\nChannel positions : Front: L C R, Side: L R, LFE\r\nSampling rate : 48.0 kHz\r\nFrame rate : 31.250 FPS (1536 SPF)\r\nBit depth : 16 bits\r\nCompression mode : Lossy\r\nStream size : 257 MiB (14%)\r\nLanguage : English\r\nService kind : Complete Main\r\nDefault : Yes\r\nForced : No\r\n\r\nText\r\nID : 2\r\nFormat : UTF-8\r\nCodec ID : S_TEXT/UTF8\r\nCodec ID/Info : UTF-8 Plain Text\r\nDuration : 1 h 32 min\r\nBit rate : 53 b/s\r\nCount of elements : 1327\r\nStream size : 36.1 KiB (0%)\r\nLanguage : English\r\nDefault : Yes\r\nForced : No","last_updated":"2018-07-19T12:08:03.008Z","parsed":{"xt":"urn:btih:d819cc60cfa62c215f6fc83f17b08a5fbe6062cc","dn":"Battalion 2018 1080p WEB-DL DD 5.1 x264 [MW]","tr":["udp://exodus.desync.com:6969","udp://open.demonii.com:1337","udp://tracker.coppersurfer.tk:6969","udp://tracker.leechers-paradise.org:6969","udp://zer0day.ch:1337"],"infoHash":"d819cc60cfa62c215f6fc83f17b08a5fbe6062cc","infoHashBuffer":{"type":"Buffer","data":[216,25,204,96,207,166,44,33,95,111,200,63,23,176,138,95,190,96,98,204]},"name":"Battalion 2018 1080p WEB-DL DD 5.1 x264 [MW]","announce":["udp://exodus.desync.com:6969","udp://open.demonii.com:1337","udp://tracker.coppersurfer.tk:6969","udp://tracker.leechers-paradise.org:6969","udp://zer0day.ch:1337"],"urlList":[]}}